<mxfile host="app.diagrams.net" modified="2022-06-21T10:07:08.239Z" agent="5.0 (Windows NT 10.0; Win64; x64) AppleWebKit/537.36 (KHTML, like Gecko) Chrome/102.0.0.0 Safari/537.36" etag="NuqEPoVpe38lvTHDb1oF" version="20.0.1" type="github">
  <diagram id="C5RBs43oDa-KdzZeNtuy" name="Page-1">
    <mxGraphModel dx="870" dy="2248" grid="1" gridSize="10" guides="1" tooltips="1" connect="1" arrows="1" fold="1" page="1" pageScale="1" pageWidth="2336" pageHeight="1654" math="0" shadow="0">
      <root>
        <mxCell id="WIyWlLk6GJQsqaUBKTNV-0" />
        <mxCell id="WIyWlLk6GJQsqaUBKTNV-1" parent="WIyWlLk6GJQsqaUBKTNV-0" />
        <mxCell id="OALHgHpGzS4IjV2bNkfh-8" value="GUI" style="swimlane;fontStyle=1;align=center;verticalAlign=top;childLayout=stackLayout;horizontal=1;startSize=26;horizontalStack=0;resizeParent=1;resizeParentMax=0;resizeLast=0;collapsible=1;marginBottom=0;" parent="WIyWlLk6GJQsqaUBKTNV-1" vertex="1">
          <mxGeometry x="158" y="-1338" width="160" height="86" as="geometry" />
        </mxCell>
        <mxCell id="OALHgHpGzS4IjV2bNkfh-9" value="+ field: type" style="text;strokeColor=none;fillColor=none;align=left;verticalAlign=top;spacingLeft=4;spacingRight=4;overflow=hidden;rotatable=0;points=[[0,0.5],[1,0.5]];portConstraint=eastwest;" parent="OALHgHpGzS4IjV2bNkfh-8" vertex="1">
          <mxGeometry y="26" width="160" height="26" as="geometry" />
        </mxCell>
        <mxCell id="OALHgHpGzS4IjV2bNkfh-10" value="" style="line;strokeWidth=1;fillColor=none;align=left;verticalAlign=middle;spacingTop=-1;spacingLeft=3;spacingRight=3;rotatable=0;labelPosition=right;points=[];portConstraint=eastwest;" parent="OALHgHpGzS4IjV2bNkfh-8" vertex="1">
          <mxGeometry y="52" width="160" height="8" as="geometry" />
        </mxCell>
        <mxCell id="OALHgHpGzS4IjV2bNkfh-11" value="+ method(type): type" style="text;strokeColor=none;fillColor=none;align=left;verticalAlign=top;spacingLeft=4;spacingRight=4;overflow=hidden;rotatable=0;points=[[0,0.5],[1,0.5]];portConstraint=eastwest;" parent="OALHgHpGzS4IjV2bNkfh-8" vertex="1">
          <mxGeometry y="60" width="160" height="26" as="geometry" />
        </mxCell>
        <mxCell id="OALHgHpGzS4IjV2bNkfh-12" value="Terminal" style="swimlane;fontStyle=1;align=center;verticalAlign=top;childLayout=stackLayout;horizontal=1;startSize=26;horizontalStack=0;resizeParent=1;resizeParentMax=0;resizeLast=0;collapsible=1;marginBottom=0;" parent="WIyWlLk6GJQsqaUBKTNV-1" vertex="1">
          <mxGeometry x="498" y="-1340" width="160" height="86" as="geometry" />
        </mxCell>
        <mxCell id="OALHgHpGzS4IjV2bNkfh-13" value="+ field: type" style="text;strokeColor=none;fillColor=none;align=left;verticalAlign=top;spacingLeft=4;spacingRight=4;overflow=hidden;rotatable=0;points=[[0,0.5],[1,0.5]];portConstraint=eastwest;" parent="OALHgHpGzS4IjV2bNkfh-12" vertex="1">
          <mxGeometry y="26" width="160" height="26" as="geometry" />
        </mxCell>
        <mxCell id="OALHgHpGzS4IjV2bNkfh-14" value="" style="line;strokeWidth=1;fillColor=none;align=left;verticalAlign=middle;spacingTop=-1;spacingLeft=3;spacingRight=3;rotatable=0;labelPosition=right;points=[];portConstraint=eastwest;" parent="OALHgHpGzS4IjV2bNkfh-12" vertex="1">
          <mxGeometry y="52" width="160" height="8" as="geometry" />
        </mxCell>
        <mxCell id="OALHgHpGzS4IjV2bNkfh-15" value="+ method(type): type" style="text;strokeColor=none;fillColor=none;align=left;verticalAlign=top;spacingLeft=4;spacingRight=4;overflow=hidden;rotatable=0;points=[[0,0.5],[1,0.5]];portConstraint=eastwest;" parent="OALHgHpGzS4IjV2bNkfh-12" vertex="1">
          <mxGeometry y="60" width="160" height="26" as="geometry" />
        </mxCell>
        <mxCell id="OALHgHpGzS4IjV2bNkfh-16" value="Maze Generator&#xa;" style="swimlane;fontStyle=1;align=center;verticalAlign=top;childLayout=stackLayout;horizontal=1;startSize=26;horizontalStack=0;resizeParent=1;resizeParentMax=0;resizeLast=0;collapsible=1;marginBottom=0;" parent="WIyWlLk6GJQsqaUBKTNV-1" vertex="1">
          <mxGeometry x="328" y="-1168" width="160" height="86" as="geometry" />
        </mxCell>
        <mxCell id="OALHgHpGzS4IjV2bNkfh-17" value="+ field: type" style="text;strokeColor=none;fillColor=none;align=left;verticalAlign=top;spacingLeft=4;spacingRight=4;overflow=hidden;rotatable=0;points=[[0,0.5],[1,0.5]];portConstraint=eastwest;" parent="OALHgHpGzS4IjV2bNkfh-16" vertex="1">
          <mxGeometry y="26" width="160" height="26" as="geometry" />
        </mxCell>
        <mxCell id="OALHgHpGzS4IjV2bNkfh-18" value="" style="line;strokeWidth=1;fillColor=none;align=left;verticalAlign=middle;spacingTop=-1;spacingLeft=3;spacingRight=3;rotatable=0;labelPosition=right;points=[];portConstraint=eastwest;" parent="OALHgHpGzS4IjV2bNkfh-16" vertex="1">
          <mxGeometry y="52" width="160" height="8" as="geometry" />
        </mxCell>
        <mxCell id="OALHgHpGzS4IjV2bNkfh-19" value="+ method(type): type" style="text;strokeColor=none;fillColor=none;align=left;verticalAlign=top;spacingLeft=4;spacingRight=4;overflow=hidden;rotatable=0;points=[[0,0.5],[1,0.5]];portConstraint=eastwest;" parent="OALHgHpGzS4IjV2bNkfh-16" vertex="1">
          <mxGeometry y="60" width="160" height="26" as="geometry" />
        </mxCell>
        <mxCell id="OALHgHpGzS4IjV2bNkfh-20" value="" style="endArrow=diamondThin;endFill=1;endSize=24;html=1;rounded=0;exitX=0;exitY=0.5;exitDx=0;exitDy=0;entryX=0.488;entryY=1.25;entryDx=0;entryDy=0;entryPerimeter=0;" parent="WIyWlLk6GJQsqaUBKTNV-1" source="OALHgHpGzS4IjV2bNkfh-17" target="OALHgHpGzS4IjV2bNkfh-11" edge="1">
          <mxGeometry width="160" relative="1" as="geometry">
            <mxPoint x="408" y="-1178" as="sourcePoint" />
            <mxPoint x="568" y="-1178" as="targetPoint" />
            <Array as="points">
              <mxPoint x="238" y="-1128" />
            </Array>
          </mxGeometry>
        </mxCell>
        <mxCell id="OALHgHpGzS4IjV2bNkfh-21" value="" style="endArrow=diamondThin;endFill=1;endSize=24;html=1;rounded=0;entryX=0.472;entryY=1.25;entryDx=0;entryDy=0;entryPerimeter=0;" parent="WIyWlLk6GJQsqaUBKTNV-1" target="OALHgHpGzS4IjV2bNkfh-15" edge="1">
          <mxGeometry width="160" relative="1" as="geometry">
            <mxPoint x="488" y="-1128" as="sourcePoint" />
            <mxPoint x="648" y="-1128" as="targetPoint" />
            <Array as="points">
              <mxPoint x="574" y="-1128" />
            </Array>
          </mxGeometry>
        </mxCell>
        <mxCell id="OALHgHpGzS4IjV2bNkfh-23" value="MazeGen1" style="swimlane;fontStyle=1;align=center;verticalAlign=top;childLayout=stackLayout;horizontal=1;startSize=26;horizontalStack=0;resizeParent=1;resizeParentMax=0;resizeLast=0;collapsible=1;marginBottom=0;" parent="WIyWlLk6GJQsqaUBKTNV-1" vertex="1">
          <mxGeometry x="48" y="-1038" width="160" height="86" as="geometry" />
        </mxCell>
        <mxCell id="OALHgHpGzS4IjV2bNkfh-24" value="+ field: type" style="text;strokeColor=none;fillColor=none;align=left;verticalAlign=top;spacingLeft=4;spacingRight=4;overflow=hidden;rotatable=0;points=[[0,0.5],[1,0.5]];portConstraint=eastwest;" parent="OALHgHpGzS4IjV2bNkfh-23" vertex="1">
          <mxGeometry y="26" width="160" height="26" as="geometry" />
        </mxCell>
        <mxCell id="OALHgHpGzS4IjV2bNkfh-25" value="" style="line;strokeWidth=1;fillColor=none;align=left;verticalAlign=middle;spacingTop=-1;spacingLeft=3;spacingRight=3;rotatable=0;labelPosition=right;points=[];portConstraint=eastwest;" parent="OALHgHpGzS4IjV2bNkfh-23" vertex="1">
          <mxGeometry y="52" width="160" height="8" as="geometry" />
        </mxCell>
        <mxCell id="OALHgHpGzS4IjV2bNkfh-26" value="+ method(type): type" style="text;strokeColor=none;fillColor=none;align=left;verticalAlign=top;spacingLeft=4;spacingRight=4;overflow=hidden;rotatable=0;points=[[0,0.5],[1,0.5]];portConstraint=eastwest;" parent="OALHgHpGzS4IjV2bNkfh-23" vertex="1">
          <mxGeometry y="60" width="160" height="26" as="geometry" />
        </mxCell>
        <mxCell id="OALHgHpGzS4IjV2bNkfh-27" value="MazeGen2" style="swimlane;fontStyle=1;align=center;verticalAlign=top;childLayout=stackLayout;horizontal=1;startSize=26;horizontalStack=0;resizeParent=1;resizeParentMax=0;resizeLast=0;collapsible=1;marginBottom=0;" parent="WIyWlLk6GJQsqaUBKTNV-1" vertex="1">
          <mxGeometry x="218" y="-1038" width="160" height="86" as="geometry" />
        </mxCell>
        <mxCell id="OALHgHpGzS4IjV2bNkfh-28" value="+ field: type" style="text;strokeColor=none;fillColor=none;align=left;verticalAlign=top;spacingLeft=4;spacingRight=4;overflow=hidden;rotatable=0;points=[[0,0.5],[1,0.5]];portConstraint=eastwest;" parent="OALHgHpGzS4IjV2bNkfh-27" vertex="1">
          <mxGeometry y="26" width="160" height="26" as="geometry" />
        </mxCell>
        <mxCell id="OALHgHpGzS4IjV2bNkfh-29" value="" style="line;strokeWidth=1;fillColor=none;align=left;verticalAlign=middle;spacingTop=-1;spacingLeft=3;spacingRight=3;rotatable=0;labelPosition=right;points=[];portConstraint=eastwest;" parent="OALHgHpGzS4IjV2bNkfh-27" vertex="1">
          <mxGeometry y="52" width="160" height="8" as="geometry" />
        </mxCell>
        <mxCell id="OALHgHpGzS4IjV2bNkfh-30" value="+ method(type): type" style="text;strokeColor=none;fillColor=none;align=left;verticalAlign=top;spacingLeft=4;spacingRight=4;overflow=hidden;rotatable=0;points=[[0,0.5],[1,0.5]];portConstraint=eastwest;" parent="OALHgHpGzS4IjV2bNkfh-27" vertex="1">
          <mxGeometry y="60" width="160" height="26" as="geometry" />
        </mxCell>
        <mxCell id="OALHgHpGzS4IjV2bNkfh-31" value="MazeGen3" style="swimlane;fontStyle=1;align=center;verticalAlign=top;childLayout=stackLayout;horizontal=1;startSize=26;horizontalStack=0;resizeParent=1;resizeParentMax=0;resizeLast=0;collapsible=1;marginBottom=0;" parent="WIyWlLk6GJQsqaUBKTNV-1" vertex="1">
          <mxGeometry x="388" y="-1038" width="160" height="86" as="geometry" />
        </mxCell>
        <mxCell id="OALHgHpGzS4IjV2bNkfh-32" value="+ field: type" style="text;strokeColor=none;fillColor=none;align=left;verticalAlign=top;spacingLeft=4;spacingRight=4;overflow=hidden;rotatable=0;points=[[0,0.5],[1,0.5]];portConstraint=eastwest;" parent="OALHgHpGzS4IjV2bNkfh-31" vertex="1">
          <mxGeometry y="26" width="160" height="26" as="geometry" />
        </mxCell>
        <mxCell id="OALHgHpGzS4IjV2bNkfh-33" value="" style="line;strokeWidth=1;fillColor=none;align=left;verticalAlign=middle;spacingTop=-1;spacingLeft=3;spacingRight=3;rotatable=0;labelPosition=right;points=[];portConstraint=eastwest;" parent="OALHgHpGzS4IjV2bNkfh-31" vertex="1">
          <mxGeometry y="52" width="160" height="8" as="geometry" />
        </mxCell>
        <mxCell id="OALHgHpGzS4IjV2bNkfh-34" value="+ method(type): type" style="text;strokeColor=none;fillColor=none;align=left;verticalAlign=top;spacingLeft=4;spacingRight=4;overflow=hidden;rotatable=0;points=[[0,0.5],[1,0.5]];portConstraint=eastwest;" parent="OALHgHpGzS4IjV2bNkfh-31" vertex="1">
          <mxGeometry y="60" width="160" height="26" as="geometry" />
        </mxCell>
        <mxCell id="OALHgHpGzS4IjV2bNkfh-38" value="Maze Solver&#xa;&#xa;" style="swimlane;fontStyle=1;align=center;verticalAlign=top;childLayout=stackLayout;horizontal=1;startSize=26;horizontalStack=0;resizeParent=1;resizeParentMax=0;resizeLast=0;collapsible=1;marginBottom=0;" parent="WIyWlLk6GJQsqaUBKTNV-1" vertex="1">
          <mxGeometry x="878" y="-1168" width="160" height="86" as="geometry" />
        </mxCell>
        <mxCell id="OALHgHpGzS4IjV2bNkfh-39" value="+ field: type" style="text;strokeColor=none;fillColor=none;align=left;verticalAlign=top;spacingLeft=4;spacingRight=4;overflow=hidden;rotatable=0;points=[[0,0.5],[1,0.5]];portConstraint=eastwest;" parent="OALHgHpGzS4IjV2bNkfh-38" vertex="1">
          <mxGeometry y="26" width="160" height="26" as="geometry" />
        </mxCell>
        <mxCell id="OALHgHpGzS4IjV2bNkfh-40" value="" style="line;strokeWidth=1;fillColor=none;align=left;verticalAlign=middle;spacingTop=-1;spacingLeft=3;spacingRight=3;rotatable=0;labelPosition=right;points=[];portConstraint=eastwest;" parent="OALHgHpGzS4IjV2bNkfh-38" vertex="1">
          <mxGeometry y="52" width="160" height="8" as="geometry" />
        </mxCell>
        <mxCell id="OALHgHpGzS4IjV2bNkfh-41" value="+ method(type): type" style="text;strokeColor=none;fillColor=none;align=left;verticalAlign=top;spacingLeft=4;spacingRight=4;overflow=hidden;rotatable=0;points=[[0,0.5],[1,0.5]];portConstraint=eastwest;" parent="OALHgHpGzS4IjV2bNkfh-38" vertex="1">
          <mxGeometry y="60" width="160" height="26" as="geometry" />
        </mxCell>
        <mxCell id="OALHgHpGzS4IjV2bNkfh-42" value="MazeGen1" style="swimlane;fontStyle=1;align=center;verticalAlign=top;childLayout=stackLayout;horizontal=1;startSize=26;horizontalStack=0;resizeParent=1;resizeParentMax=0;resizeLast=0;collapsible=1;marginBottom=0;" parent="WIyWlLk6GJQsqaUBKTNV-1" vertex="1">
          <mxGeometry x="598" y="-1038" width="160" height="86" as="geometry" />
        </mxCell>
        <mxCell id="OALHgHpGzS4IjV2bNkfh-43" value="+ field: type" style="text;strokeColor=none;fillColor=none;align=left;verticalAlign=top;spacingLeft=4;spacingRight=4;overflow=hidden;rotatable=0;points=[[0,0.5],[1,0.5]];portConstraint=eastwest;" parent="OALHgHpGzS4IjV2bNkfh-42" vertex="1">
          <mxGeometry y="26" width="160" height="26" as="geometry" />
        </mxCell>
        <mxCell id="OALHgHpGzS4IjV2bNkfh-44" value="" style="line;strokeWidth=1;fillColor=none;align=left;verticalAlign=middle;spacingTop=-1;spacingLeft=3;spacingRight=3;rotatable=0;labelPosition=right;points=[];portConstraint=eastwest;" parent="OALHgHpGzS4IjV2bNkfh-42" vertex="1">
          <mxGeometry y="52" width="160" height="8" as="geometry" />
        </mxCell>
        <mxCell id="OALHgHpGzS4IjV2bNkfh-45" value="+ method(type): type" style="text;strokeColor=none;fillColor=none;align=left;verticalAlign=top;spacingLeft=4;spacingRight=4;overflow=hidden;rotatable=0;points=[[0,0.5],[1,0.5]];portConstraint=eastwest;" parent="OALHgHpGzS4IjV2bNkfh-42" vertex="1">
          <mxGeometry y="60" width="160" height="26" as="geometry" />
        </mxCell>
        <mxCell id="OALHgHpGzS4IjV2bNkfh-46" value="MazeGen2" style="swimlane;fontStyle=1;align=center;verticalAlign=top;childLayout=stackLayout;horizontal=1;startSize=26;horizontalStack=0;resizeParent=1;resizeParentMax=0;resizeLast=0;collapsible=1;marginBottom=0;" parent="WIyWlLk6GJQsqaUBKTNV-1" vertex="1">
          <mxGeometry x="768" y="-1038" width="160" height="86" as="geometry" />
        </mxCell>
        <mxCell id="OALHgHpGzS4IjV2bNkfh-47" value="+ field: type" style="text;strokeColor=none;fillColor=none;align=left;verticalAlign=top;spacingLeft=4;spacingRight=4;overflow=hidden;rotatable=0;points=[[0,0.5],[1,0.5]];portConstraint=eastwest;" parent="OALHgHpGzS4IjV2bNkfh-46" vertex="1">
          <mxGeometry y="26" width="160" height="26" as="geometry" />
        </mxCell>
        <mxCell id="OALHgHpGzS4IjV2bNkfh-48" value="" style="line;strokeWidth=1;fillColor=none;align=left;verticalAlign=middle;spacingTop=-1;spacingLeft=3;spacingRight=3;rotatable=0;labelPosition=right;points=[];portConstraint=eastwest;" parent="OALHgHpGzS4IjV2bNkfh-46" vertex="1">
          <mxGeometry y="52" width="160" height="8" as="geometry" />
        </mxCell>
        <mxCell id="OALHgHpGzS4IjV2bNkfh-49" value="+ method(type): type" style="text;strokeColor=none;fillColor=none;align=left;verticalAlign=top;spacingLeft=4;spacingRight=4;overflow=hidden;rotatable=0;points=[[0,0.5],[1,0.5]];portConstraint=eastwest;" parent="OALHgHpGzS4IjV2bNkfh-46" vertex="1">
          <mxGeometry y="60" width="160" height="26" as="geometry" />
        </mxCell>
        <mxCell id="OALHgHpGzS4IjV2bNkfh-50" value="MazeGen3" style="swimlane;fontStyle=1;align=center;verticalAlign=top;childLayout=stackLayout;horizontal=1;startSize=26;horizontalStack=0;resizeParent=1;resizeParentMax=0;resizeLast=0;collapsible=1;marginBottom=0;" parent="WIyWlLk6GJQsqaUBKTNV-1" vertex="1">
          <mxGeometry x="938" y="-1038" width="160" height="86" as="geometry" />
        </mxCell>
        <mxCell id="OALHgHpGzS4IjV2bNkfh-51" value="+ field: type" style="text;strokeColor=none;fillColor=none;align=left;verticalAlign=top;spacingLeft=4;spacingRight=4;overflow=hidden;rotatable=0;points=[[0,0.5],[1,0.5]];portConstraint=eastwest;" parent="OALHgHpGzS4IjV2bNkfh-50" vertex="1">
          <mxGeometry y="26" width="160" height="26" as="geometry" />
        </mxCell>
        <mxCell id="OALHgHpGzS4IjV2bNkfh-52" value="" style="line;strokeWidth=1;fillColor=none;align=left;verticalAlign=middle;spacingTop=-1;spacingLeft=3;spacingRight=3;rotatable=0;labelPosition=right;points=[];portConstraint=eastwest;" parent="OALHgHpGzS4IjV2bNkfh-50" vertex="1">
          <mxGeometry y="52" width="160" height="8" as="geometry" />
        </mxCell>
        <mxCell id="OALHgHpGzS4IjV2bNkfh-53" value="+ method(type): type" style="text;strokeColor=none;fillColor=none;align=left;verticalAlign=top;spacingLeft=4;spacingRight=4;overflow=hidden;rotatable=0;points=[[0,0.5],[1,0.5]];portConstraint=eastwest;" parent="OALHgHpGzS4IjV2bNkfh-50" vertex="1">
          <mxGeometry y="60" width="160" height="26" as="geometry" />
        </mxCell>
        <mxCell id="OALHgHpGzS4IjV2bNkfh-59" value="" style="endArrow=block;endFill=0;endSize=12;html=1;rounded=0;exitX=0.5;exitY=0;exitDx=0;exitDy=0;entryX=0.494;entryY=1.308;entryDx=0;entryDy=0;entryPerimeter=0;" parent="WIyWlLk6GJQsqaUBKTNV-1" source="OALHgHpGzS4IjV2bNkfh-27" target="OALHgHpGzS4IjV2bNkfh-19" edge="1">
          <mxGeometry width="160" relative="1" as="geometry">
            <mxPoint x="288" y="-1054" as="sourcePoint" />
            <mxPoint x="298" y="-1094" as="targetPoint" />
            <Array as="points">
              <mxPoint x="298" y="-1054" />
              <mxPoint x="408" y="-1054" />
            </Array>
          </mxGeometry>
        </mxCell>
        <mxCell id="OALHgHpGzS4IjV2bNkfh-60" value="" style="endArrow=block;endFill=0;endSize=12;html=1;rounded=0;exitX=0.5;exitY=0;exitDx=0;exitDy=0;" parent="WIyWlLk6GJQsqaUBKTNV-1" source="OALHgHpGzS4IjV2bNkfh-31" edge="1">
          <mxGeometry width="160" relative="1" as="geometry">
            <mxPoint x="548" y="-1084" as="sourcePoint" />
            <mxPoint x="468" y="-1084" as="targetPoint" />
          </mxGeometry>
        </mxCell>
        <mxCell id="OALHgHpGzS4IjV2bNkfh-61" value="" style="endArrow=block;endFill=0;endSize=12;html=1;rounded=0;exitX=0.5;exitY=0;exitDx=0;exitDy=0;entryX=0;entryY=0.5;entryDx=0;entryDy=0;" parent="WIyWlLk6GJQsqaUBKTNV-1" source="OALHgHpGzS4IjV2bNkfh-42" target="OALHgHpGzS4IjV2bNkfh-41" edge="1">
          <mxGeometry width="160" relative="1" as="geometry">
            <mxPoint x="688" y="-1084" as="sourcePoint" />
            <mxPoint x="848" y="-1084" as="targetPoint" />
            <Array as="points">
              <mxPoint x="678" y="-1094" />
            </Array>
          </mxGeometry>
        </mxCell>
        <mxCell id="OALHgHpGzS4IjV2bNkfh-62" value="UI&#xa;" style="swimlane;fontStyle=1;align=center;verticalAlign=top;childLayout=stackLayout;horizontal=1;startSize=26;horizontalStack=0;resizeParent=1;resizeParentMax=0;resizeLast=0;collapsible=1;marginBottom=0;" parent="WIyWlLk6GJQsqaUBKTNV-1" vertex="1">
          <mxGeometry x="328" y="-1470" width="160" height="86" as="geometry" />
        </mxCell>
        <mxCell id="OALHgHpGzS4IjV2bNkfh-63" value="+ field: type" style="text;strokeColor=none;fillColor=none;align=left;verticalAlign=top;spacingLeft=4;spacingRight=4;overflow=hidden;rotatable=0;points=[[0,0.5],[1,0.5]];portConstraint=eastwest;" parent="OALHgHpGzS4IjV2bNkfh-62" vertex="1">
          <mxGeometry y="26" width="160" height="26" as="geometry" />
        </mxCell>
        <mxCell id="OALHgHpGzS4IjV2bNkfh-64" value="" style="line;strokeWidth=1;fillColor=none;align=left;verticalAlign=middle;spacingTop=-1;spacingLeft=3;spacingRight=3;rotatable=0;labelPosition=right;points=[];portConstraint=eastwest;" parent="OALHgHpGzS4IjV2bNkfh-62" vertex="1">
          <mxGeometry y="52" width="160" height="8" as="geometry" />
        </mxCell>
        <mxCell id="OALHgHpGzS4IjV2bNkfh-65" value="+ method(type): type" style="text;strokeColor=none;fillColor=none;align=left;verticalAlign=top;spacingLeft=4;spacingRight=4;overflow=hidden;rotatable=0;points=[[0,0.5],[1,0.5]];portConstraint=eastwest;" parent="OALHgHpGzS4IjV2bNkfh-62" vertex="1">
          <mxGeometry y="60" width="160" height="26" as="geometry" />
        </mxCell>
        <mxCell id="OALHgHpGzS4IjV2bNkfh-66" value="" style="endArrow=block;endFill=0;endSize=12;html=1;rounded=0;exitX=0.5;exitY=0;exitDx=0;exitDy=0;entryX=0;entryY=0.5;entryDx=0;entryDy=0;" parent="WIyWlLk6GJQsqaUBKTNV-1" source="OALHgHpGzS4IjV2bNkfh-8" target="OALHgHpGzS4IjV2bNkfh-63" edge="1">
          <mxGeometry width="160" relative="1" as="geometry">
            <mxPoint x="248" y="-1430" as="sourcePoint" />
            <mxPoint x="408" y="-1430" as="targetPoint" />
            <Array as="points">
              <mxPoint x="238" y="-1430" />
            </Array>
          </mxGeometry>
        </mxCell>
        <mxCell id="OALHgHpGzS4IjV2bNkfh-67" value="" style="endArrow=block;endFill=0;endSize=12;html=1;rounded=0;exitX=0.5;exitY=0;exitDx=0;exitDy=0;entryX=1;entryY=0.5;entryDx=0;entryDy=0;" parent="WIyWlLk6GJQsqaUBKTNV-1" target="OALHgHpGzS4IjV2bNkfh-63" edge="1">
          <mxGeometry width="160" relative="1" as="geometry">
            <mxPoint x="578.0000000000002" y="-1340" as="sourcePoint" />
            <mxPoint x="667.9999999999998" y="-1433" as="targetPoint" />
            <Array as="points">
              <mxPoint x="578" y="-1432" />
            </Array>
          </mxGeometry>
        </mxCell>
        <mxCell id="OALHgHpGzS4IjV2bNkfh-71" value="" style="endArrow=block;endFill=0;endSize=12;html=1;rounded=0;exitX=0.5;exitY=0;exitDx=0;exitDy=0;entryX=0.497;entryY=1.12;entryDx=0;entryDy=0;entryPerimeter=0;" parent="WIyWlLk6GJQsqaUBKTNV-1" source="OALHgHpGzS4IjV2bNkfh-46" target="OALHgHpGzS4IjV2bNkfh-41" edge="1">
          <mxGeometry width="160" relative="1" as="geometry">
            <mxPoint x="868" y="-1060" as="sourcePoint" />
            <mxPoint x="1028" y="-1060" as="targetPoint" />
            <Array as="points">
              <mxPoint x="848" y="-1060" />
              <mxPoint x="958" y="-1060" />
            </Array>
          </mxGeometry>
        </mxCell>
        <mxCell id="OALHgHpGzS4IjV2bNkfh-72" value="&lt;br&gt;" style="endArrow=block;endSize=16;endFill=0;html=1;rounded=0;exitX=0.5;exitY=0;exitDx=0;exitDy=0;" parent="WIyWlLk6GJQsqaUBKTNV-1" source="OALHgHpGzS4IjV2bNkfh-23" edge="1">
          <mxGeometry width="160" relative="1" as="geometry">
            <mxPoint x="168" y="-1100" as="sourcePoint" />
            <mxPoint x="328" y="-1100" as="targetPoint" />
            <Array as="points">
              <mxPoint x="128" y="-1100" />
            </Array>
          </mxGeometry>
        </mxCell>
        <mxCell id="OALHgHpGzS4IjV2bNkfh-73" value="&lt;br&gt;" style="endArrow=block;endSize=16;endFill=0;html=1;rounded=0;exitX=0.5;exitY=0;exitDx=0;exitDy=0;entryX=1;entryY=0.5;entryDx=0;entryDy=0;" parent="WIyWlLk6GJQsqaUBKTNV-1" source="OALHgHpGzS4IjV2bNkfh-50" target="OALHgHpGzS4IjV2bNkfh-41" edge="1">
          <mxGeometry width="160" relative="1" as="geometry">
            <mxPoint x="1028" y="-1038" as="sourcePoint" />
            <mxPoint x="1227.9999999999998" y="-1100" as="targetPoint" />
            <Array as="points">
              <mxPoint x="1018" y="-1060" />
              <mxPoint x="1168" y="-1060" />
              <mxPoint x="1168" y="-1095" />
            </Array>
          </mxGeometry>
        </mxCell>
        <mxCell id="OALHgHpGzS4IjV2bNkfh-74" value="" style="endArrow=diamondThin;endFill=1;endSize=24;html=1;rounded=0;exitX=0;exitY=0.5;exitDx=0;exitDy=0;entryX=1;entryY=0.5;entryDx=0;entryDy=0;" parent="WIyWlLk6GJQsqaUBKTNV-1" source="OALHgHpGzS4IjV2bNkfh-39" target="OALHgHpGzS4IjV2bNkfh-11" edge="1">
          <mxGeometry width="160" relative="1" as="geometry">
            <mxPoint x="798" y="-1290" as="sourcePoint" />
            <mxPoint x="958" y="-1290" as="targetPoint" />
            <Array as="points">
              <mxPoint x="818" y="-1129" />
              <mxPoint x="818" y="-1190" />
              <mxPoint x="468" y="-1190" />
              <mxPoint x="468" y="-1265" />
            </Array>
          </mxGeometry>
        </mxCell>
        <mxCell id="OALHgHpGzS4IjV2bNkfh-75" value="" style="endArrow=diamondThin;endFill=1;endSize=24;html=1;rounded=0;exitX=1;exitY=0.5;exitDx=0;exitDy=0;entryX=1;entryY=0.5;entryDx=0;entryDy=0;" parent="WIyWlLk6GJQsqaUBKTNV-1" source="OALHgHpGzS4IjV2bNkfh-39" target="OALHgHpGzS4IjV2bNkfh-15" edge="1">
          <mxGeometry width="160" relative="1" as="geometry">
            <mxPoint x="798" y="-1330" as="sourcePoint" />
            <mxPoint x="958" y="-1330" as="targetPoint" />
            <Array as="points">
              <mxPoint x="1108" y="-1130" />
              <mxPoint x="1108" y="-1267" />
            </Array>
          </mxGeometry>
        </mxCell>
      </root>
    </mxGraphModel>
  </diagram>
</mxfile>
